{"title":"A.Perfect.Day.2015[English+German].1080p.x264.DTS-RiSHU","uid":14240857,"size":3611800669,"categoryP":"video","categoryS":"hd___movies","magnet":"?xt=urn:btih:9d8ff6ee8078a217ab2da2088b50d37d0e8377aa&amp;dn=A.Perfect.Day.2015%5BEnglish%2BGerman%5D.1080p.x264.DTS-RiSHU&amp;tr=udp%3A%2F%2Ftracker.leechers-paradise.org%3A6969&amp;tr=udp%3A%2F%2Fzer0day.ch%3A1337&amp;tr=udp%3A%2F%2Fopen.demonii.com%3A1337&amp;tr=udp%3A%2F%2Ftracker.coppersurfer.tk%3A6969&amp;tr=udp%3A%2F%2Fexodus.desync.com%3A6969","seeders":1,"leechers":0,"uploader":"TheDeb","files":1,"time":1460146545,"description":"ormat                                   : Matroska\r\nFormat version                           : Version 2\r\nFile size                                : 3.36 GiB\r\nDuration                                 : 1h 46mn\r\nOverall bit rate                         : 4 538 Kbps\r\nEncoded date                             : UTC 2016-04-08 17:40:05\r\nWriting application                      : mkvmerge v8.5.2 ('Crosses') 32bit\r\nWriting library                          : libebml v1.3.3 + libmatroska v1.4.4\r\n\r\nVideo\r\nID                                       : 1\r\nFormat                                   : AVC\r\nFormat/Info                              : Advanced Video Codec\r\nFormat profile                           :   \r\nFormat settings, CABAC                   : Yes\r\nFormat settings, ReFrames                : 4 frames\r\nCodec ID                                 : V_MPEG4/ISO/AVC\r\nDuration                                 : 1h 46mn\r\nBit rate                                 : 3 000 Kbps\r\nWidth                                    : 1 920 pixels\r\nHeight                                   : 800 pixels\r\nDisplay aspect ratio                     : 2.40:1\r\nFrame rate mode                          : Constant\r\nFrame rate                               : 24.000 fps\r\nColor space                              : YUV\r\nChroma subsampling                       : 4:2:0\r\nBit depth                                : 8 bits\r\nScan type                                : Progressive\r\nBits/(Pixel*Frame)                       : 0.081\r\nStream size                              : 2.22 GiB (66%)\r\nTitle                                    : RiSHU\r\nWriting library                          : x264 core 148 r2638 7599210\r\nDefault                                  : Yes\r\nForced                                   : No\r\n\r\nAudio #1\r\nID                                       : 2\r\nFormat                                   : DTS\r\nFormat/Info                              : Digital Theater Systems\r\nMode                                     : 16\r\nFormat settings, Endianness              : Big\r\nCodec ID                                 : A_DTS\r\nDuration                                 : 1h 45mn\r\nBit rate mode                            : Constant\r\nBit rate                                 : 768 Kbps\r\nChannel(s)                               : 6 channels\r\nChannel positions                        : Front: L C R, Side: L R, LFE\r\nSampling rate                            : 48.0 KHz\r\nFrame rate                               : 93.750 fps (512 spf)\r\nBit depth                                : 16 bits\r\nCompression mode                         : Lossy\r\nStream size                              : 582 MiB (17%)\r\nTitle                                    : RiSHU\r\nLanguage                                 : English\r\nDefault                                  : Yes\r\nForced                                   : No\r\n\r\nAudio #2\r\nID                                       : 3\r\nFormat                                   : DTS\r\nFormat/Info                              : Digital Theater Systems\r\nMode                                     : 16\r\nFormat settings, Endianness              : Big\r\nCodec ID                                 : A_DTS\r\nDuration                                 : 1h 45mn\r\nBit rate mode                            : Constant\r\nBit rate                                 : 768 Kbps\r\nChannel(s)                               : 6 channels\r\nChannel positions                        : Front: L C R, Side: L R, LFE\r\nSampling rate                            : 48.0 KHz\r\nFrame rate                               : 93.750 fps (512 spf)\r\nBit depth                                : 16 bits\r\nCompression mode                         : Lossy\r\nStream size                              : 582 MiB (17%)\r\nTitle                                    : RiSHU\r\nLanguage                                 : German\r\n\r\nScreens Gallery:\r\n \nhttp://imgur.com/a/UsYlv","torrent":{"xt":"urn:btih:9d8ff6ee8078a217ab2da2088b50d37d0e8377aa","amp;dn":"A.Perfect.Day.2015%5BEnglish%2BGerman%5D.1080p.x264.DTS-RiSHU","amp;tr":["udp%3A%2F%2Ftracker.leechers-paradise.org%3A6969","udp%3A%2F%2Fzer0day.ch%3A1337","udp%3A%2F%2Fopen.demonii.com%3A1337","udp%3A%2F%2Ftracker.coppersurfer.tk%3A6969","udp%3A%2F%2Fexodus.desync.com%3A6969"],"infoHash":"9d8ff6ee8078a217ab2da2088b50d37d0e8377aa","infoHashBuffer":{"type":"Buffer","data":[157,143,246,238,128,120,162,23,171,45,162,8,139,80,211,125,14,131,119,170]},"announce":[],"urlList":[]}}